<?xml version="1.0" encoding="UTF-8" standalone="no"?>
<svg
   xmlns:dc="http://purl.org/dc/elements/1.1/"
   xmlns:cc="http://creativecommons.org/ns#"
   xmlns:rdf="http://www.w3.org/1999/02/22-rdf-syntax-ns#"
   xmlns:svg="http://www.w3.org/2000/svg"
   xmlns="http://www.w3.org/2000/svg"
   xmlns:sodipodi="http://sodipodi.sourceforge.net/DTD/sodipodi-0.dtd"
   xmlns:inkscape="http://www.inkscape.org/namespaces/inkscape"
   id="svg1084"
   version="1.1"
   viewBox="0 0 7.9375003 7.9375001"
   height="30.000002"
   width="30.000002"
   sodipodi:docname="unlikely.svg"
   inkscape:version="0.92.2 (5c3e80d, 2017-08-06)"
   inkscape:export-filename="unlikely.png"
   inkscape:export-xdpi="56.25"
   inkscape:export-ydpi="56.25">
  <sodipodi:namedview
     pagecolor="#ffffff"
     bordercolor="#666666"
     borderopacity="1"
     objecttolerance="10"
     gridtolerance="10"
     guidetolerance="10"
     inkscape:pageopacity="0"
     inkscape:pageshadow="2"
     inkscape:window-width="1069"
     inkscape:window-height="1074"
     id="namedview27"
     showgrid="false"
     inkscape:zoom="1"
     inkscape:cx="-58.215074"
     inkscape:cy="-11.47483"
     inkscape:window-x="0"
     inkscape:window-y="0"
     inkscape:window-maximized="0"
     inkscape:current-layer="svg1084" />
  <defs
     id="defs1078">
    <filter
       id="filter986-1"
       style="color-interpolation-filters:sRGB">
      <feFlood
         id="feFlood976-2"
         result="flood"
         flood-color="rgb(0,0,0)"
         flood-opacity="1" />
      <feComposite
         id="feComposite978-70"
         result="composite1"
         operator="in"
         in2="SourceGraphic"
         in="flood" />
      <feGaussianBlur
         id="feGaussianBlur980-9"
         result="blur"
         stdDeviation="1"
         in="composite1" />
      <feOffset
         id="feOffset982-36"
         result="offset"
         dy="0"
         dx="0" />
      <feComposite
         id="feComposite984-0"
         result="composite2"
         operator="over"
         in2="offset"
         in="SourceGraphic" />
    </filter>
    <filter
       id="filter986-3"
       style="color-interpolation-filters:sRGB">
      <feFlood
         id="feFlood976-6"
         result="flood"
         flood-color="rgb(0,0,0)"
         flood-opacity="1" />
      <feComposite
         id="feComposite978-7"
         result="composite1"
         operator="in"
         in2="SourceGraphic"
         in="flood" />
      <feGaussianBlur
         id="feGaussianBlur980-5"
         result="blur"
         stdDeviation="1"
         in="composite1" />
      <feOffset
         id="feOffset982-3"
         result="offset"
         dy="0"
         dx="0" />
      <feComposite
         id="feComposite984-5"
         result="composite2"
         operator="over"
         in2="offset"
         in="SourceGraphic" />
    </filter>
    <filter
       id="filter986"
       style="color-interpolation-filters:sRGB">
      <feFlood
         id="feFlood976"
         result="flood"
         flood-color="rgb(0,0,0)"
         flood-opacity="1" />
      <feComposite
         id="feComposite978"
         result="composite1"
         operator="in"
         in2="SourceGraphic"
         in="flood" />
      <feGaussianBlur
         id="feGaussianBlur980"
         result="blur"
         stdDeviation="1"
         in="composite1" />
      <feOffset
         id="feOffset982"
         result="offset"
         dy="0"
         dx="0" />
      <feComposite
         id="feComposite984"
         result="composite2"
         operator="over"
         in2="offset"
         in="SourceGraphic" />
    </filter>
    <filter
       id="filter986-6"
       style="color-interpolation-filters:sRGB">
      <feFlood
         id="feFlood976-7"
         result="flood"
         flood-color="rgb(0,0,0)"
         flood-opacity="1" />
      <feComposite
         id="feComposite978-5"
         result="composite1"
         operator="in"
         in2="SourceGraphic"
         in="flood" />
      <feGaussianBlur
         id="feGaussianBlur980-3"
         result="blur"
         stdDeviation="1"
         in="composite1" />
      <feOffset
         id="feOffset982-5"
         result="offset"
         dy="0"
         dx="0" />
      <feComposite
         id="feComposite984-6"
         result="composite2"
         operator="over"
         in2="offset"
         in="SourceGraphic" />
    </filter>
    <filter
       id="filter986-6-9"
       style="color-interpolation-filters:sRGB">
      <feFlood
         id="feFlood976-7-3"
         result="flood"
         flood-color="rgb(0,0,0)"
         flood-opacity="1" />
      <feComposite
         id="feComposite978-5-6"
         result="composite1"
         operator="in"
         in2="SourceGraphic"
         in="flood" />
      <feGaussianBlur
         id="feGaussianBlur980-3-0"
         result="blur"
         stdDeviation="1"
         in="composite1" />
      <feOffset
         id="feOffset982-5-6"
         result="offset"
         dy="0"
         dx="0" />
      <feComposite
         id="feComposite984-6-2"
         result="composite2"
         operator="over"
         in2="offset"
         in="SourceGraphic" />
    </filter>
  </defs>
  <metadata
     id="metadata1081">
    <rdf:RDF>
      <cc:Work
         rdf:about="">
        <dc:format>image/svg+xml</dc:format>
        <dc:type
           rdf:resource="http://purl.org/dc/dcmitype/StillImage" />
        <dc:title></dc:title>
      </cc:Work>
    </rdf:RDF>
  </metadata>
  <g
     transform="translate(491.55803,189.26636)"
     id="layer1">
    <circle
       transform="matrix(0.32457648,0,0,0.32457648,-489.86132,-187.56965)"
       r="10.18956"
       cy="7"
       cx="7"
       id="path867"
       style="color:#000000;display:inline;overflow:visible;visibility:visible;opacity:1;fill:#d4edda;fill-opacity:1;fill-rule:nonzero;stroke:#ffffff;stroke-width:2;stroke-linecap:round;stroke-linejoin:round;stroke-miterlimit:4;stroke-dasharray:none;stroke-dashoffset:0;stroke-opacity:1;marker:none;filter:url(#filter986);enable-background:accumulate" />
    <rect
       style="visibility:hidden;fill:none;stroke:none;stroke-width:0.26458332"
       id="canvas"
       y="-187.14969"
       x="-489.44135"
       height="3.7041664"
       width="3.7041664" />
  </g>
  <g
     id="g907"
     transform="matrix(0.37797617,0,0,0.37797617,1.3229169,1.3229169)">
    <rect
       style="visibility:hidden;fill:none;stroke:none"
       id="canvas-3"
       y="0"
       x="0"
       height="14"
       width="14" />
    <path
       style="fill:#333333;fill-opacity:1;stroke:none"
       id="swimming"
       d="M 8.28125,1.90625 C 8.1873095,1.9137211 8.0966058,1.9442246 8,2 L 4.96875,3.625 C 4.58422,3.807 4.4339,4.37715 4.6875,4.71875 L 5.25,5.75 2,7.75 V 8.5 C 2,8.5 2.4991574,8 3,8 3.4737861,8 4.4232286,9 5,9 5.5033641,9 6.4961991,8 7,8 7.5243377,8 8.4756623,9 9,9 H 9.34375 L 6.5,4.5 8.59375,3.40625 C 9.041742,3.1476017 9.186529,2.6980781 9,2.375 8.8279386,2.0769809 8.5630716,1.8838367 8.28125,1.90625 Z M 10,4.5 C 9.17157,4.5 8.5,5.1716 8.5,6 8.5,6.8284 9.17157,7.5 10,7.5 10.82843,7.5 11.5,6.8284 11.5,6 11.5,5.1716 10.82843,4.5 10,4.5 Z m -7,5 c -0.533898,0 -1.492285,1 -2,1 V 12 c 0.537184,0 1.525424,-1 2,-1 0.504237,0 1.466102,1 2,1 0.475502,0 1.492285,-1 2,-1 0.504237,0 1.52173,1 2,1 0.504237,0 1.525424,-1 2,-1 0.474576,0 1.495763,1 2,1 v -1.5 c -0.415254,0 -1.466102,-1.0296611 -2,-1 -0.47827,0 -1.465278,1 -2,1 -0.444915,0 -1.495763,-1 -2,-1 -0.504237,0 -1.554097,1 -2,1 -0.475502,0 -1.466102,-1 -2,-1 z"
       inkscape:connector-curvature="0" />
  </g>
</svg>
